{"title":"The Giant Claw(1957)MPEG-4[DaScubaDude]","uid":14115435,"size":753917319,"categoryP":"video","categoryS":"movies","magnet":"?xt=urn:btih:d69a9f0ed9697e50c6bd56d44a742ca3e0fea696&amp;dn=The+Giant+Claw%281957%29MPEG-4%5BDaScubaDude%5D&amp;tr=udp%3A%2F%2Ftracker.leechers-paradise.org%3A6969&amp;tr=udp%3A%2F%2Fzer0day.ch%3A1337&amp;tr=udp%3A%2F%2Fopen.demonii.com%3A1337&amp;tr=udp%3A%2F%2Ftracker.coppersurfer.tk%3A6969&amp;tr=udp%3A%2F%2Fexodus.desync.com%3A6969","seeders":0,"leechers":1,"uploader":"dascuba","files":1,"time":1459402325,"description":"The Giant Claw (1957)\r\nApproved | 1h 15min | Fantasy, Horror, Sci-Fi | June 1957 (USA)\r\nGlobal panic ensues when it is revealed that a mysterious UFO is actually a giant bird that flies at supersonic speed and has no regard for life or architecture.\r\nDirector: Fred F. Sears\r\nWriters: Samuel Newman, Paul Gangelin\r\nStars: Jeff Morrow, Mara Corday, Morris Ankrum \r\n\r\n\r\nGeneral\r\nComplete name                            : The Giant ClawICONS_OF_HORROR_Title15.mp4\r\nFormat                                   : MPEG-4\r\nFormat profile                           : Base Media\r\nCodec ID                                 : isom\r\nFile size                                : 719 MiB\r\nDuration                                 : 1h 14mn\r\nOverall bit rate                         : 1 356 Kbps\r\nMovie name                               : ICONS_OF_HORROR\r\nGenre                                    : Horror\r\nWriting application                      : Lavf54.6.100\r\n\r\nVideo\r\nID                                       : 1\r\nFormat                                   : AVC\r\nFormat/Info                              : Advanced Video Codec\r\nFormat profile                           :   \r\nFormat settings, CABAC                   : No\r\nFormat settings, ReFrames                : 6 frames\r\nCodec ID                                 : avc1\r\nCodec ID/Info                            : Advanced Video Coding\r\nDuration                                 : 1h 14mn\r\nBit rate                                 : 1 210 Kbps\r\nWidth                                    : 720 pixels\r\nHeight                                   : 404 pixels\r\nDisplay aspect ratio                     : 16:9\r\nFrame rate mode                          : Constant\r\nFrame rate                               : 29.970 fps\r\nColor space                              : YUV\r\nChroma subsampling                       : 4:2:0\r\nBit depth                                : 8 bits\r\nScan type                                : Progressive\r\nBits/(Pixel*Frame)                       : 0.139\r\nStream size                              : 642 MiB (89%)\r\n\r\nAudio\r\nID                                       : 2\r\nFormat                                   : AAC\r\nFormat/Info                              : Advanced Audio Codec\r\nFormat profile                           : LC\r\nCodec ID                                 : 40\r\nDuration                                 : 1h 14mn\r\nBit rate mode                            : Constant\r\nBit rate                                 : 139 Kbps\r\nChannel(s)                               : 2 channels\r\nChannel positions                        : Front: L R\r\nSampling rate                            : 44.1 KHz\r\nCompression mode                         : Lossy\r\nStream size                              : 73.5 MiB (10%)","torrent":{"xt":"urn:btih:d69a9f0ed9697e50c6bd56d44a742ca3e0fea696","amp;dn":"The+Giant+Claw%281957%29MPEG-4%5BDaScubaDude%5D","amp;tr":["udp%3A%2F%2Ftracker.leechers-paradise.org%3A6969","udp%3A%2F%2Fzer0day.ch%3A1337","udp%3A%2F%2Fopen.demonii.com%3A1337","udp%3A%2F%2Ftracker.coppersurfer.tk%3A6969","udp%3A%2F%2Fexodus.desync.com%3A6969"],"infoHash":"d69a9f0ed9697e50c6bd56d44a742ca3e0fea696","infoHashBuffer":{"type":"Buffer","data":[214,154,159,14,217,105,126,80,198,189,86,212,74,116,44,163,224,254,166,150]},"announce":[],"urlList":[]}}